<svg xmlns="http://www.w3.org/2000/svg" xmlns:xlink="http://www.w3.org/1999/xlink" width="500" zoomAndPan="magnify" viewBox="0 0 375 374.999991" height="500" preserveAspectRatio="xMidYMid meet" version="1.0"><defs><g/><clipPath id="e1417d2d38"><path d="M 171 125 L 236.894531 125 L 236.894531 208.777344 L 171 208.777344 Z M 171 125 " clip-rule="nonzero"/></clipPath><clipPath id="6a537e8259"><path d="M 137.894531 150 L 177 150 L 177 187 L 137.894531 187 Z M 137.894531 150 " clip-rule="nonzero"/></clipPath><clipPath id="f038017b2d"><path d="M 141 114.277344 L 214 114.277344 L 214 149 L 141 149 Z M 141 114.277344 " clip-rule="nonzero"/></clipPath><clipPath id="94baaceb08"><path d="M 175 148 L 235 148 L 235 208.777344 L 175 208.777344 Z M 175 148 " clip-rule="nonzero"/></clipPath></defs><g fill="#436264" fill-opacity="1"><g transform="translate(77.641395, 242.349226)"><g><path d="M 13.570312 0 L 16.507812 0 L 9.253906 -9.4375 L 15.910156 -18.195312 L 12.996094 -18.195312 L 7.175781 -10.449219 L 4.757812 -10.449219 L 4.757812 -18.195312 L 2.46875 -18.195312 L 2.46875 0 L 4.757812 0 L 4.757812 -8.320312 L 7.175781 -8.320312 Z M 13.570312 0 "/></g></g></g><g fill="#436264" fill-opacity="1"><g transform="translate(98.046432, 242.349226)"><g><path d="M 14.738281 -18.195312 L 14.738281 -4.160156 L 4.550781 -18.195312 L 2.46875 -18.195312 L 2.46875 0 L 4.707031 0 L 4.707031 -14.191406 L 15.050781 0 L 16.976562 0 L 16.976562 -18.195312 Z M 14.738281 -18.195312 "/></g></g></g><g fill="#436264" fill-opacity="1"><g transform="translate(121.414584, 242.349226)"><g><path d="M 10.761719 0.3125 C 16.273438 0.3125 20.277344 -3.71875 20.277344 -9.070312 C 20.277344 -14.453125 16.273438 -18.484375 10.761719 -18.484375 C 5.25 -18.484375 1.222656 -14.453125 1.222656 -9.070312 C 1.222656 -3.71875 5.25 0.3125 10.761719 0.3125 Z M 10.761719 -1.921875 C 6.628906 -1.921875 3.5625 -5.015625 3.5625 -9.070312 C 3.5625 -13.152344 6.628906 -16.246094 10.761719 -16.246094 C 14.894531 -16.246094 17.960938 -13.179688 17.960938 -9.070312 C 17.960938 -4.992188 14.894531 -1.921875 10.761719 -1.921875 Z M 10.761719 -1.921875 "/></g></g></g><g fill="#436264" fill-opacity="1"><g transform="translate(146.862106, 242.349226)"><g><path d="M 23.65625 -18.195312 L 19.234375 -3.71875 L 13.75 -17.832031 L 12.839844 -17.832031 L 7.511719 -3.71875 L 2.988281 -18.195312 L 0.570312 -18.195312 L 6.421875 0 L 8.421875 0 L 13.308594 -12.917969 L 18.328125 0 L 20.328125 0 L 26.074219 -18.195312 Z M 23.65625 -18.195312 "/></g></g></g><g fill="#436264" fill-opacity="1"><g transform="translate(177.456093, 242.349226)"><g><path d="M 23.707031 0 L 20.691406 -18.195312 L 18.429688 -18.195312 L 12.398438 -4.835938 L 6.394531 -18.195312 L 4.183594 -18.195312 L 1.117188 0 L 3.457031 0 L 5.847656 -14.191406 L 12.113281 -0.441406 L 12.738281 -0.441406 L 19.003906 -14.191406 L 21.367188 0 Z M 23.707031 0 "/></g></g></g><g fill="#436264" fill-opacity="1"><g transform="translate(206.230612, 242.349226)"><g><path d="M 15.179688 0 L 17.652344 0 L 10.007812 -18.195312 L 7.875 -18.195312 L 0.441406 0 L 2.859375 0 L 4.628906 -4.339844 L 13.386719 -4.339844 Z M 8.96875 -15.050781 L 12.53125 -6.445312 L 5.484375 -6.445312 Z M 8.96875 -15.050781 "/></g></g></g><g fill="#436264" fill-opacity="1"><g transform="translate(228.247166, 242.349226)"><g><path d="M 13.882812 -18.195312 L 0.546875 -18.195312 L 0.546875 -16.039062 L 6.082031 -16.039062 L 6.082031 0 L 8.34375 0 L 8.34375 -16.039062 L 13.882812 -16.039062 Z M 13.882812 -18.195312 "/></g></g></g><g fill="#436264" fill-opacity="1"><g transform="translate(246.598819, 242.349226)"><g><path d="M 2.46875 0 L 4.757812 0 L 4.757812 -18.195312 L 2.46875 -18.195312 Z M 2.46875 0 "/></g></g></g><g fill="#436264" fill-opacity="1"><g transform="translate(257.750628, 242.349226)"><g><path d="M 10.554688 0.285156 C 14.84375 0.285156 18.222656 -2.289062 19.261719 -6.394531 L 16.949219 -6.394531 C 15.988281 -3.613281 13.621094 -1.949219 10.554688 -1.949219 C 6.5 -1.949219 3.5625 -4.886719 3.5625 -9.070312 C 3.5625 -13.257812 6.5 -16.246094 10.554688 -16.246094 C 13.542969 -16.246094 15.882812 -14.660156 16.84375 -12.035156 L 19.183594 -12.035156 C 18.144531 -15.960938 14.765625 -18.457031 10.554688 -18.457031 C 5.148438 -18.457031 1.222656 -14.53125 1.222656 -9.070312 C 1.222656 -3.640625 5.148438 0.285156 10.554688 0.285156 Z M 10.554688 0.285156 "/></g></g></g><g fill="#436264" fill-opacity="1"><g transform="translate(281.820573, 242.349226)"><g><path d="M 7.902344 0.234375 C 11.515625 0.234375 14.324219 -1.714844 14.324219 -5.148438 C 14.324219 -8.941406 11.101562 -9.695312 8.242188 -10.398438 C 5.902344 -10.945312 3.796875 -11.464844 3.796875 -13.4375 C 3.796875 -15.179688 5.457031 -16.222656 7.667969 -16.222656 C 9.878906 -16.222656 11.542969 -15.050781 11.542969 -13.023438 L 13.804688 -13.023438 C 13.804688 -16.324219 11.488281 -18.40625 7.71875 -18.40625 C 3.953125 -18.40625 1.535156 -16.507812 1.535156 -13.363281 C 1.535156 -9.722656 4.628906 -8.96875 7.433594 -8.320312 C 9.800781 -7.746094 11.957031 -7.253906 11.957031 -5.121094 C 11.957031 -3.199219 10.164062 -2 7.875 -2 C 5.355469 -2 3.507812 -3.328125 3.507812 -5.589844 L 1.167969 -5.589844 C 1.167969 -2 3.898438 0.234375 7.902344 0.234375 Z M 7.902344 0.234375 "/></g></g></g><g clip-path="url(#e1417d2d38)"><path fill="#436264" d="M 174.96875 207.042969 C 174.945312 207.773438 175.042969 208.382812 175.238281 208.894531 L 175.820312 205.265625 C 176.285156 196.230469 176.550781 186.21875 181.300781 177.769531 C 215.59375 175.136719 235.636719 157.847656 237.097656 127.597656 C 182.8125 116.664062 173.167969 150.660156 171.460938 155.144531 C 178.160156 133.664062 206.605469 123.824219 232.933594 129.304688 C 231.617188 160.792969 203.535156 172.238281 181.617188 173.699219 C 181.957031 172.507812 182.496094 171.242188 183.152344 169.949219 C 188.023438 166.296875 193.574219 161.449219 199.082031 159.695312 C 199.324219 160.597656 199.882812 161.449219 200.710938 162.109375 C 203 163.863281 206.605469 163.546875 208.75 161.402344 C 210.890625 159.257812 210.792969 156.09375 208.503906 154.339844 C 206.214844 152.585938 202.613281 152.902344 200.46875 155.046875 C 199.371094 156.140625 198.859375 157.503906 198.933594 158.820312 C 194.355469 160.109375 190.019531 162.570312 185.832031 165.617188 C 189.09375 158.1875 198.886719 150.148438 208.164062 144.207031 C 210.039062 145.960938 213.085938 146.277344 215.691406 144.839844 C 218.855469 143.085938 220.148438 139.386719 218.589844 136.558594 C 217.03125 133.734375 213.207031 132.859375 210.039062 134.613281 C 206.875 136.367188 205.582031 140.066406 207.140625 142.894531 C 207.214844 143.039062 207.3125 143.183594 207.410156 143.332031 C 201.660156 145.984375 196.789062 149.152344 192.722656 152.730469 C 192.554688 149.832031 192.554688 146.886719 191.652344 142.894531 C 192.820312 141.578125 193.1875 139.433594 192.457031 137.972656 C 191.699219 136.488281 190.070312 136.316406 188.828125 137.632812 C 187.558594 138.921875 187.144531 141.1875 187.902344 142.671875 C 188.582031 144.039062 190.019531 144.28125 191.214844 143.308594 C 191.261719 147.957031 190.703125 151.613281 190.386719 154.898438 C 174.945312 166.515625 174.96875 189.605469 174.96875 207.042969 Z M 202.707031 160.109375 C 201.6875 159.332031 201.148438 157.675781 202.367188 156.484375 C 203.5625 155.289062 205.507812 155.507812 206.53125 156.3125 C 207.554688 157.089844 208.089844 158.746094 206.875 159.941406 C 205.65625 161.132812 203.730469 160.890625 202.707031 160.109375 Z M 189.484375 138.972656 C 190.042969 138.386719 190.96875 138.191406 191.382812 139.019531 C 191.796875 139.847656 191.359375 141.042969 190.800781 141.625 C 190.238281 142.210938 189.3125 142.40625 188.898438 141.578125 C 188.484375 140.75 188.925781 139.554688 189.484375 138.972656 Z M 211.476562 137.21875 C 212.890625 136.4375 215.105469 136.414062 215.980469 137.996094 C 216.859375 139.582031 215.664062 141.429688 214.253906 142.210938 C 212.839844 142.988281 210.625 143.015625 209.746094 141.429688 C 208.871094 139.847656 210.0625 137.996094 211.476562 137.21875 Z M 211.476562 137.21875 " fill-opacity="1" fill-rule="evenodd"/></g><g clip-path="url(#6a537e8259)"><path fill="#197e86" d="M 169.074219 170.730469 C 165.886719 170.460938 162.449219 169.632812 157.800781 169.511719 C 158.578125 170.558594 158.335938 171.726562 157.167969 172.265625 C 155.898438 172.847656 154.023438 172.433594 152.976562 171.339844 C 151.929688 170.242188 152.125 168.878906 153.390625 168.320312 C 154.609375 167.757812 156.410156 168.125 157.457031 169.148438 C 161.476562 168.390625 164.230469 168.683594 167.152344 168.488281 C 164.082031 165.226562 160.160156 162.496094 155.070312 160.0625 C 154.460938 161.351562 152.832031 161.914062 151.34375 161.328125 C 149.785156 160.71875 148.957031 159.113281 149.496094 157.699219 C 150.03125 156.3125 151.734375 155.679688 153.292969 156.261719 C 154.851562 156.871094 155.679688 158.480469 155.144531 159.867188 C 158.652344 161.183594 161.597656 162.523438 164.035156 163.933594 C 163.425781 162.011719 163.035156 160.109375 163.109375 158.234375 C 162.597656 158.113281 162.160156 157.75 161.867188 157.1875 C 161.332031 156.117188 161.648438 154.730469 162.574219 154.070312 C 163.523438 153.4375 164.714844 153.777344 165.25 154.851562 C 165.789062 155.921875 165.472656 157.308594 164.519531 157.96875 C 164.179688 158.210938 163.789062 158.308594 163.425781 158.285156 C 163.402344 160.234375 164.253906 162.472656 164.984375 164.496094 C 170.246094 167.757812 173.167969 171.535156 175.140625 176.527344 C 182.152344 151.296875 159.820312 146.691406 137.902344 152.367188 C 140.945312 171.121094 152.683594 179.984375 172.363281 177.914062 C 174.628906 180.570312 173.75 184.296875 174.605469 186.535156 C 175.675781 180.15625 175.625 174.871094 169.074219 170.730469 Z M 169.074219 170.730469 " fill-opacity="1" fill-rule="nonzero"/></g><g clip-path="url(#f038017b2d)"><path fill="#197e86" d="M 186.878906 116.296875 C 195.425781 116.296875 203.414062 118.660156 210.234375 122.777344 C 211.429688 122.726562 212.621094 122.703125 213.789062 122.703125 C 206.144531 117.394531 196.886719 114.277344 186.878906 114.277344 C 165.421875 114.277344 147.300781 128.570312 141.53125 148.152344 C 142.261719 148.054688 142.992188 147.957031 143.722656 147.859375 C 149.519531 129.570312 166.640625 116.296875 186.878906 116.296875 Z M 186.878906 116.296875 " fill-opacity="1" fill-rule="nonzero"/></g><path fill="#197e86" d="M 143.601562 174.847656 C 142.625 174.089844 141.726562 173.261719 140.847656 172.386719 C 144.355469 187.363281 154.972656 199.589844 168.953125 205.3125 C 168.953125 204.582031 168.953125 203.875 168.953125 203.121094 C 156.875 197.933594 147.496094 187.582031 143.601562 174.847656 Z M 143.601562 174.847656 " fill-opacity="1" fill-rule="nonzero"/><g clip-path="url(#94baaceb08)"><path fill="#197e86" d="M 232.226562 148.152344 C 231.8125 149.128906 231.375 150.101562 230.910156 151.027344 C 231.714844 154.414062 232.152344 157.945312 232.152344 161.574219 C 232.152344 186.585938 211.890625 206.847656 186.878906 206.847656 C 182.882812 206.847656 179.011719 206.335938 175.335938 205.363281 L 175.335938 205.582031 L 175.042969 207.359375 C 178.816406 208.332031 182.785156 208.84375 186.878906 208.84375 C 212.988281 208.84375 234.152344 187.679688 234.152344 161.574219 C 234.152344 156.898438 233.46875 152.390625 232.226562 148.152344 Z M 232.226562 148.152344 " fill-opacity="1" fill-rule="nonzero"/></g></svg>